<svg xmlns="http://www.w3.org/2000/svg" xmlns:xlink="http://www.w3.org/1999/xlink" width="500" zoomAndPan="magnify" viewBox="0 0 375 374.999991" height="500" preserveAspectRatio="xMidYMid meet" version="1.2"><defs><clipPath id="6a51b54239"><path d="M 43.890625 43.890625 L 331.105469 43.890625 L 331.105469 331.105469 L 43.890625 331.105469 Z M 43.890625 43.890625 "/></clipPath><clipPath id="f9ac796f64"><path d="M 187.496094 43.890625 C 108.1875 43.890625 43.890625 108.1875 43.890625 187.496094 C 43.890625 266.808594 108.1875 331.105469 187.496094 331.105469 C 266.808594 331.105469 331.105469 266.808594 331.105469 187.496094 C 331.105469 108.1875 266.808594 43.890625 187.496094 43.890625 Z M 187.496094 43.890625 "/></clipPath><clipPath id="6fd1c14f28"><path d="M 109 61 L 266 61 L 266 139 L 109 139 Z M 109 61 "/></clipPath><clipPath id="78abdfd4e3"><path d="M 109.710938 123.078125 L 116.109375 61.160156 L 265.3125 76.574219 L 258.917969 138.496094 Z M 109.710938 123.078125 "/></clipPath><clipPath id="fbfca135b1"><path d="M 109.710938 123.078125 L 116.109375 61.160156 L 265.3125 76.574219 L 258.917969 138.496094 Z M 109.710938 123.078125 "/></clipPath><clipPath id="d025d8d0d1"><path d="M 109.710938 123.078125 L 116.109375 61.160156 L 265.3125 76.574219 L 258.917969 138.496094 Z M 109.710938 123.078125 "/></clipPath><clipPath id="013b99fc67"><path d="M 111 83 L 263 83 L 263 127 L 111 127 Z M 111 83 "/></clipPath><clipPath id="a9e5ed2e7c"><path d="M 109.710938 123.078125 L 116.109375 61.160156 L 265.3125 76.574219 L 258.917969 138.496094 Z M 109.710938 123.078125 "/></clipPath><clipPath id="1218cc07ff"><path d="M 109.710938 123.078125 L 116.109375 61.160156 L 265.3125 76.574219 L 258.917969 138.496094 Z M 109.710938 123.078125 "/></clipPath><clipPath id="5a5fa08046"><path d="M 109.710938 123.078125 L 116.109375 61.160156 L 265.3125 76.574219 L 258.917969 138.496094 Z M 109.710938 123.078125 "/></clipPath><clipPath id="f98f9a9a77"><path d="M 109 61 L 266 61 L 266 139 L 109 139 Z M 109 61 "/></clipPath><clipPath id="657e7e44da"><path d="M 109.710938 123.078125 L 116.109375 61.160156 L 265.3125 76.574219 L 258.917969 138.496094 Z M 109.710938 123.078125 "/></clipPath><clipPath id="bc0844a7c8"><path d="M 109.710938 123.078125 L 116.109375 61.160156 L 265.3125 76.574219 L 258.917969 138.496094 Z M 109.710938 123.078125 "/></clipPath><clipPath id="8ed33709ad"><path d="M 109.710938 123.078125 L 116.109375 61.160156 L 265.3125 76.574219 L 258.917969 138.496094 Z M 109.710938 123.078125 "/></clipPath><clipPath id="d527fa6c0d"><path d="M 112 85 L 253 85 L 253 124 L 112 124 Z M 112 85 "/></clipPath><clipPath id="94d5dd4cdd"><path d="M 109.710938 123.078125 L 116.109375 61.160156 L 265.3125 76.574219 L 258.917969 138.496094 Z M 109.710938 123.078125 "/></clipPath><clipPath id="05065820bf"><path d="M 109.710938 123.078125 L 116.109375 61.160156 L 265.3125 76.574219 L 258.917969 138.496094 Z M 109.710938 123.078125 "/></clipPath><clipPath id="538edabf05"><path d="M 109.710938 123.078125 L 116.109375 61.160156 L 265.3125 76.574219 L 258.917969 138.496094 Z M 109.710938 123.078125 "/></clipPath></defs><g id="04b2b610d2"><g clip-rule="nonzero" clip-path="url(#6a51b54239)"><g clip-rule="nonzero" clip-path="url(#f9ac796f64)"><path style="fill:none;stroke-width:8;stroke-linecap:butt;stroke-linejoin:miter;stroke:#000000;stroke-opacity:1;stroke-miterlimit:4;" d="M 191.474053 0.0000755762 C 85.729247 0.0000755762 0.0000695762 85.729253 0.0000695762 191.474059 C 0.0000695762 297.224072 85.729247 382.95325 191.474053 382.95325 C 297.224066 382.95325 382.953244 297.224072 382.953244 191.474059 C 382.953244 85.729253 297.224066 0.0000755762 191.474053 0.0000755762 Z M 191.474053 0.0000755762 " transform="matrix(0.75,0,0,0.75,43.890573,43.890568)"/></g></g><g style="fill:#000000;fill-opacity:1;"><g transform="translate(51.999552, 200.697628)"><path style="stroke:none" d="M 34.75 -40.0625 C 38.195312 -39.695312 41.28125 -38.785156 44 -37.328125 C 46.726562 -35.878906 48.914062 -34.054688 50.5625 -31.859375 C 52.21875 -29.660156 53.160156 -27.203125 53.390625 -24.484375 C 53.484375 -23.304688 53.5625 -21.9375 53.625 -20.375 C 53.695312 -18.8125 53.617188 -17.234375 53.390625 -15.640625 C 53.078125 -12.960938 52.125 -10.421875 50.53125 -8.015625 C 48.945312 -5.617188 46.816406 -3.613281 44.140625 -2 C 41.460938 -0.394531 38.289062 0.539062 34.625 0.8125 C 34.257812 0.863281 33.597656 0.890625 32.640625 0.890625 C 31.691406 0.890625 30.628906 0.875 29.453125 0.84375 C 28.273438 0.820312 27.175781 0.800781 26.15625 0.78125 C 25.132812 0.757812 24.375 0.75 23.875 0.75 C 21.425781 0.613281 19.125 0.0703125 16.96875 -0.875 C 14.8125 -1.832031 12.882812 -3.070312 11.1875 -4.59375 C 9.488281 -6.113281 8.117188 -7.820312 7.078125 -9.71875 C 6.035156 -11.625 5.421875 -13.578125 5.234375 -15.578125 C 5.140625 -16.796875 5.09375 -18.28125 5.09375 -20.03125 C 5.09375 -21.78125 5.164062 -23.175781 5.3125 -24.21875 C 5.664062 -26.976562 6.671875 -29.488281 8.328125 -31.75 C 9.984375 -34.019531 12.148438 -35.878906 14.828125 -37.328125 C 17.503906 -38.785156 20.519531 -39.695312 23.875 -40.0625 C 24.320312 -40.101562 25.035156 -40.132812 26.015625 -40.15625 C 26.992188 -40.1875 28.070312 -40.203125 29.25 -40.203125 C 30.425781 -40.203125 31.523438 -40.1875 32.546875 -40.15625 C 33.566406 -40.132812 34.300781 -40.101562 34.75 -40.0625 Z M 33.796875 -34.890625 C 33.484375 -34.929688 32.914062 -34.960938 32.09375 -34.984375 C 31.28125 -35.015625 30.375 -35.03125 29.375 -35.03125 C 28.382812 -35.03125 27.46875 -35.015625 26.625 -34.984375 C 25.789062 -34.960938 25.210938 -34.929688 24.890625 -34.890625 C 22.535156 -34.710938 20.394531 -34.097656 18.46875 -33.046875 C 16.539062 -32.003906 14.953125 -30.664062 13.703125 -29.03125 C 12.453125 -27.40625 11.648438 -25.570312 11.296875 -23.53125 C 11.203125 -22.988281 11.144531 -22.25 11.125 -21.3125 C 11.101562 -20.382812 11.09375 -19.46875 11.09375 -18.5625 C 11.09375 -17.65625 11.113281 -16.910156 11.15625 -16.328125 C 11.332031 -14.378906 12.03125 -12.519531 13.25 -10.75 C 14.476562 -8.976562 16.101562 -7.523438 18.125 -6.390625 C 20.144531 -5.253906 22.378906 -4.597656 24.828125 -4.421875 C 25.054688 -4.421875 25.585938 -4.410156 26.421875 -4.390625 C 27.265625 -4.367188 28.21875 -4.359375 29.28125 -4.359375 C 30.34375 -4.359375 31.304688 -4.359375 32.171875 -4.359375 C 33.035156 -4.359375 33.578125 -4.359375 33.796875 -4.359375 C 36.390625 -4.535156 38.660156 -5.164062 40.609375 -6.25 C 42.554688 -7.34375 44.117188 -8.757812 45.296875 -10.5 C 46.472656 -12.25 47.195312 -14.164062 47.46875 -16.25 C 47.5625 -16.707031 47.617188 -17.421875 47.640625 -18.390625 C 47.660156 -19.367188 47.660156 -20.367188 47.640625 -21.390625 C 47.617188 -22.410156 47.5625 -23.21875 47.46875 -23.8125 C 47.195312 -25.894531 46.414062 -27.726562 45.125 -29.3125 C 43.832031 -30.894531 42.210938 -32.175781 40.265625 -33.15625 C 38.316406 -34.132812 36.160156 -34.710938 33.796875 -34.890625 Z M 33.796875 -34.890625 "/></g></g><g style="fill:#000000;fill-opacity:1;"><g transform="translate(110.629027, 200.697628)"><path style="stroke:none" d="M 8.703125 -11.625 L 8.703125 -25.234375 L 1.625 -25.234375 L 1.625 -30.125 L 8.703125 -30.125 L 8.703125 -39.65625 L 14.625 -39.65625 L 14.625 -30.125 L 30.40625 -30.125 L 30.40625 -25.234375 L 14.625 -25.234375 L 14.625 -12.375 C 14.625 -10.96875 14.769531 -9.734375 15.0625 -8.671875 C 15.351562 -7.609375 15.988281 -6.769531 16.96875 -6.15625 C 17.945312 -5.539062 19.429688 -5.144531 21.421875 -4.96875 C 21.828125 -4.914062 22.492188 -4.878906 23.421875 -4.859375 C 24.359375 -4.835938 25.347656 -4.828125 26.390625 -4.828125 C 27.429688 -4.828125 28.394531 -4.828125 29.28125 -4.828125 C 30.164062 -4.828125 30.8125 -4.828125 31.21875 -4.828125 L 31.21875 0.0625 C 30.8125 0.0625 30.039062 0.0625 28.90625 0.0625 C 27.769531 0.0625 26.507812 0.0703125 25.125 0.09375 C 23.75 0.125 22.46875 0.113281 21.28125 0.0625 C 20.101562 0.0195312 19.289062 -0.0195312 18.84375 -0.0625 C 16.164062 -0.519531 14.085938 -1.269531 12.609375 -2.3125 C 11.140625 -3.351562 10.117188 -4.664062 9.546875 -6.25 C 8.984375 -7.84375 8.703125 -9.632812 8.703125 -11.625 Z M 8.703125 -11.625 "/></g></g><g style="fill:#000000;fill-opacity:1;"><g transform="translate(143.548595, 200.697628)"><path style="stroke:none" d="M 40.875 0 L 38.421875 -3.46875 C 37.296875 -2.46875 35.890625 -1.640625 34.203125 -0.984375 C 32.523438 -0.328125 30.53125 0 28.21875 0 L 16.1875 0 C 12.101562 0 9.0625 -0.925781 7.0625 -2.78125 C 5.070312 -4.644531 4.078125 -6.957031 4.078125 -9.71875 C 4.078125 -12.53125 5.128906 -14.851562 7.234375 -16.6875 C 9.347656 -18.53125 12.398438 -19.453125 16.390625 -19.453125 L 35.640625 -19.453125 L 35.640625 -20.953125 C 35.640625 -22.171875 34.9375 -23.164062 33.53125 -23.9375 C 32.125 -24.707031 30.296875 -25.273438 28.046875 -25.640625 C 25.804688 -26.003906 23.40625 -26.148438 20.84375 -26.078125 C 18.28125 -26.015625 15.796875 -25.773438 13.390625 -25.359375 C 10.992188 -24.953125 8.976562 -24.390625 7.34375 -23.671875 L 7.34375 -28.703125 C 8.75 -29.378906 10.550781 -29.929688 12.75 -30.359375 C 14.945312 -30.796875 17.347656 -31.09375 19.953125 -31.25 C 22.566406 -31.40625 25.15625 -31.367188 27.71875 -31.140625 C 30.28125 -30.921875 32.613281 -30.484375 34.71875 -29.828125 C 36.832031 -29.171875 38.535156 -28.265625 39.828125 -27.109375 C 41.117188 -25.953125 41.765625 -24.488281 41.765625 -22.71875 L 41.765625 -11.015625 C 41.765625 -9.972656 41.601562 -8.976562 41.28125 -8.03125 L 47.0625 0 Z M 10.265625 -9.796875 C 10.265625 -6.753906 12.441406 -5.234375 16.796875 -5.234375 L 27.8125 -5.234375 C 29.175781 -5.234375 30.445312 -5.414062 31.625 -5.78125 C 32.800781 -6.144531 33.753906 -6.753906 34.484375 -7.609375 C 35.210938 -8.472656 35.578125 -9.632812 35.578125 -11.09375 L 35.578125 -14.34375 L 16.796875 -14.34375 C 12.441406 -14.34375 10.265625 -12.828125 10.265625 -9.796875 Z M 10.265625 -9.796875 "/></g></g><g style="fill:#000000;fill-opacity:1;"><g transform="translate(192.791913, 200.697628)"><path style="stroke:none" d="M 31.15625 0.140625 C 29.75 0.179688 28.296875 0.210938 26.796875 0.234375 C 25.296875 0.253906 23.800781 0.175781 22.3125 0 C 20.039062 -0.269531 17.960938 -0.992188 16.078125 -2.171875 C 14.203125 -3.347656 12.898438 -4.570312 12.171875 -5.84375 L 12.171875 11.703125 L 6.125 11.703125 L 6.125 -30.0625 L 12.171875 -30.0625 L 12.171875 -25.234375 C 12.671875 -25.960938 13.429688 -26.742188 14.453125 -27.578125 C 15.472656 -28.421875 16.707031 -29.160156 18.15625 -29.796875 C 19.613281 -30.429688 21.179688 -30.789062 22.859375 -30.875 C 23.578125 -30.925781 24.476562 -30.960938 25.5625 -30.984375 C 26.65625 -31.003906 27.703125 -31.015625 28.703125 -31.015625 C 29.703125 -31.015625 30.425781 -30.992188 30.875 -30.953125 C 33.914062 -30.859375 36.679688 -30.195312 39.171875 -28.96875 C 41.671875 -27.75 43.664062 -26.148438 45.15625 -24.171875 C 46.65625 -22.203125 47.40625 -20.015625 47.40625 -17.609375 L 47.40625 -13.0625 C 47.40625 -10.613281 46.722656 -8.425781 45.359375 -6.5 C 44.003906 -4.570312 42.113281 -3.03125 39.6875 -1.875 C 37.257812 -0.71875 34.414062 -0.046875 31.15625 0.140625 Z M 30.203125 -5.171875 C 32.191406 -5.265625 34.015625 -5.648438 35.671875 -6.328125 C 37.328125 -7.003906 38.640625 -7.96875 39.609375 -9.21875 C 40.585938 -10.46875 41.078125 -11.972656 41.078125 -13.734375 L 41.078125 -16.53125 C 41.078125 -19.207031 40.035156 -21.328125 37.953125 -22.890625 C 35.867188 -24.453125 33.351562 -25.320312 30.40625 -25.5 C 30.21875 -25.5 29.769531 -25.507812 29.0625 -25.53125 C 28.363281 -25.5625 27.59375 -25.578125 26.75 -25.578125 C 25.914062 -25.578125 25.144531 -25.578125 24.4375 -25.578125 C 23.738281 -25.578125 23.28125 -25.550781 23.0625 -25.5 C 21.425781 -25.28125 19.789062 -24.757812 18.15625 -23.9375 C 16.53125 -23.125 15.171875 -22.082031 14.078125 -20.8125 C 12.992188 -19.539062 12.453125 -18.085938 12.453125 -16.453125 L 12.453125 -13.9375 C 12.453125 -12.351562 12.992188 -10.90625 14.078125 -9.59375 C 15.171875 -8.28125 16.519531 -7.222656 18.125 -6.421875 C 19.738281 -5.628906 21.335938 -5.210938 22.921875 -5.171875 C 23.234375 -5.171875 23.910156 -5.171875 24.953125 -5.171875 C 26.003906 -5.171875 27.050781 -5.171875 28.09375 -5.171875 C 29.132812 -5.171875 29.835938 -5.171875 30.203125 -5.171875 Z M 30.203125 -5.171875 "/></g></g><g style="fill:#000000;fill-opacity:1;"><g transform="translate(244.551809, 200.697628)"><path style="stroke:none" d="M 11.5625 -37.75 L 11.5625 -44.75 L 18.765625 -44.75 L 18.765625 -37.75 Z M 3.328125 -25.296875 L 3.328125 -30.46875 L 18.296875 -30.46875 L 18.296875 -4.96875 L 27.8125 -4.96875 L 27.8125 0 L 2.515625 0 L 2.515625 -4.96875 L 12.171875 -4.96875 L 12.171875 -25.296875 Z M 3.328125 -25.296875 "/></g></g><g style="fill:#000000;fill-opacity:1;"><g transform="translate(273.73051, 200.697628)"><path style="stroke:none" d="M 40.875 0 L 38.421875 -3.46875 C 37.296875 -2.46875 35.890625 -1.640625 34.203125 -0.984375 C 32.523438 -0.328125 30.53125 0 28.21875 0 L 16.1875 0 C 12.101562 0 9.0625 -0.925781 7.0625 -2.78125 C 5.070312 -4.644531 4.078125 -6.957031 4.078125 -9.71875 C 4.078125 -12.53125 5.128906 -14.851562 7.234375 -16.6875 C 9.347656 -18.53125 12.398438 -19.453125 16.390625 -19.453125 L 35.640625 -19.453125 L 35.640625 -20.953125 C 35.640625 -22.171875 34.9375 -23.164062 33.53125 -23.9375 C 32.125 -24.707031 30.296875 -25.273438 28.046875 -25.640625 C 25.804688 -26.003906 23.40625 -26.148438 20.84375 -26.078125 C 18.28125 -26.015625 15.796875 -25.773438 13.390625 -25.359375 C 10.992188 -24.953125 8.976562 -24.390625 7.34375 -23.671875 L 7.34375 -28.703125 C 8.75 -29.378906 10.550781 -29.929688 12.75 -30.359375 C 14.945312 -30.796875 17.347656 -31.09375 19.953125 -31.25 C 22.566406 -31.40625 25.15625 -31.367188 27.71875 -31.140625 C 30.28125 -30.921875 32.613281 -30.484375 34.71875 -29.828125 C 36.832031 -29.171875 38.535156 -28.265625 39.828125 -27.109375 C 41.117188 -25.953125 41.765625 -24.488281 41.765625 -22.71875 L 41.765625 -11.015625 C 41.765625 -9.972656 41.601562 -8.976562 41.28125 -8.03125 L 47.0625 0 Z M 10.265625 -9.796875 C 10.265625 -6.753906 12.441406 -5.234375 16.796875 -5.234375 L 27.8125 -5.234375 C 29.175781 -5.234375 30.445312 -5.414062 31.625 -5.78125 C 32.800781 -6.144531 33.753906 -6.753906 34.484375 -7.609375 C 35.210938 -8.472656 35.578125 -9.632812 35.578125 -11.09375 L 35.578125 -14.34375 L 16.796875 -14.34375 C 12.441406 -14.34375 10.265625 -12.828125 10.265625 -9.796875 Z M 10.265625 -9.796875 "/></g></g><path style="fill:none;stroke-width:3;stroke-linecap:butt;stroke-linejoin:miter;stroke:#000000;stroke-opacity:1;stroke-miterlimit:4;" d="M -0.00257823 1.497803 L 295.424538 1.497803 " transform="matrix(0.748929,0,0,0.748929,76.716775,234.835283)"/><path style="fill:none;stroke-width:3;stroke-linecap:butt;stroke-linejoin:miter;stroke:#000000;stroke-opacity:1;stroke-miterlimit:4;" d="M -0.00257823 1.501304 L 295.424538 1.501304 " transform="matrix(0.748929,0,0,0.748929,76.716775,137.914693)"/><g clip-rule="nonzero" clip-path="url(#6fd1c14f28)"><g clip-rule="nonzero" clip-path="url(#78abdfd4e3)"><g clip-rule="nonzero" clip-path="url(#fbfca135b1)"><g clip-rule="nonzero" clip-path="url(#d025d8d0d1)"><path style="fill:none;stroke-width:129.110001;stroke-linecap:butt;stroke-linejoin:miter;stroke:#000000;stroke-opacity:1;stroke-miterlimit:4;" d="M 101.11398 46.947392 C 101.11398 46.947392 48.146141 186.63476 99.803554 291.678043 C 155.685847 405.330847 101.110512 512.06604 101.110512 512.06604 " transform="matrix(0.0299646,-0.290014,0.288376,0.0297953,102.392604,125.913918)"/></g></g></g></g><g clip-rule="nonzero" clip-path="url(#013b99fc67)"><g clip-rule="nonzero" clip-path="url(#a9e5ed2e7c)"><g clip-rule="nonzero" clip-path="url(#1218cc07ff)"><g clip-rule="nonzero" clip-path="url(#5a5fa08046)"><path style=" stroke:none;fill-rule:nonzero;fill:#ffffff;fill-opacity:1;" d="M 126.433594 83.035156 C 127.417969 83.53125 128.898438 84.183594 130.867188 84.988281 L 118.328125 115.992188 C 115.539062 114.851562 113.257812 113.835938 111.488281 112.945312 Z M 135.960938 86.917969 C 137.691406 87.53125 139.429688 88.097656 141.179688 88.621094 L 131.621094 120.679688 C 129.378906 120.007812 127.144531 119.277344 124.921875 118.496094 Z M 146.441406 90.0625 C 148.203125 90.5 149.949219 90.886719 151.675781 91.21875 L 145.382812 124.078125 C 143.089844 123.636719 140.777344 123.128906 138.453125 122.550781 Z M 156.886719 92.066406 C 158.636719 92.300781 160.351562 92.472656 162.03125 92.585938 L 159.757812 125.96875 C 157.367188 125.808594 154.941406 125.5625 152.484375 125.234375 Z M 167.070312 92.75 C 168.738281 92.742188 170.367188 92.667969 171.945312 92.527344 L 174.792969 125.859375 C 172.308594 126.078125 169.777344 126.191406 167.199219 126.207031 Z M 176.613281 91.90625 C 178.132812 91.628906 179.601562 91.285156 181.019531 90.871094 L 190.242188 123.007812 C 187.726562 123.742188 185.144531 124.347656 182.5 124.828125 Z M 186.3125 89.058594 C 188.753906 88.238281 191.21875 87.523438 193.707031 86.921875 L 201.453125 119.449219 C 199.910156 119.824219 198.382812 120.265625 196.867188 120.777344 Z M 201.277344 85.445312 C 203.816406 85.066406 206.375 84.800781 208.945312 84.644531 L 210.875 118.046875 C 209.277344 118.140625 207.695312 118.304688 206.125 118.539062 Z M 216.621094 84.523438 C 219.15625 84.59375 221.691406 84.769531 224.234375 85.054688 L 220.519531 118.308594 C 218.898438 118.125 217.285156 118.011719 215.679688 117.96875 Z M 231.714844 86.199219 C 234.164062 86.679688 236.605469 87.253906 239.03125 87.925781 L 230.160156 120.179688 C 228.5625 119.738281 226.960938 119.359375 225.355469 119.046875 Z M 246.222656 90.21875 C 248.613281 91.082031 250.949219 92.03125 253.222656 93.0625 L 239.507812 123.5625 C 238.027344 122.890625 236.5 122.269531 234.925781 121.699219 Z M 260.1875 96.617188 C 260.972656 97.066406 261.625 97.464844 262.152344 97.808594 L 244.027344 125.886719 C 244.070312 125.914062 244.105469 125.9375 244.128906 125.953125 C 244.125 125.949219 244.113281 125.941406 244.09375 125.929688 C 243.960938 125.847656 243.800781 125.753906 243.613281 125.644531 Z M 260.1875 96.617188 "/></g></g></g></g><g clip-rule="nonzero" clip-path="url(#f98f9a9a77)"><g clip-rule="nonzero" clip-path="url(#657e7e44da)"><g clip-rule="nonzero" clip-path="url(#bc0844a7c8)"><g clip-rule="nonzero" clip-path="url(#8ed33709ad)"><path style="fill:none;stroke-width:106.510002;stroke-linecap:butt;stroke-linejoin:miter;stroke:#000000;stroke-opacity:1;stroke-miterlimit:4;" d="M 101.11398 46.947392 C 101.11398 46.947392 48.146141 186.63476 99.803554 291.678043 C 155.685847 405.330847 101.110512 512.06604 101.110512 512.06604 " transform="matrix(0.0299646,-0.290014,0.288376,0.0297953,102.392604,125.913918)"/></g></g></g></g><g clip-rule="nonzero" clip-path="url(#d527fa6c0d)"><g clip-rule="nonzero" clip-path="url(#94d5dd4cdd)"><g clip-rule="nonzero" clip-path="url(#05065820bf)"><g clip-rule="nonzero" clip-path="url(#538edabf05)"><path style=" stroke:none;fill-rule:nonzero;fill:#ffffff;fill-opacity:1;" d="M 125.03125 85.84375 C 125.988281 86.328125 127.40625 86.957031 129.285156 87.734375 C 133.21875 89.355469 137.277344 90.773438 141.46875 91.984375 L 133.980469 118.097656 C 128.839844 116.613281 123.847656 114.871094 119 112.871094 C 116.492188 111.835938 114.457031 110.921875 112.890625 110.132812 Z M 148.121094 93.6875 C 154.191406 95.042969 159.945312 95.773438 165.378906 95.878906 L 164.820312 123.046875 C 157.59375 122.90625 150.0625 121.960938 142.238281 120.214844 Z M 171.757812 95.699219 C 176.507812 95.320312 180.863281 94.394531 184.820312 92.921875 C 185.941406 92.503906 187.074219 92.109375 188.207031 91.738281 L 196.492188 117.59375 C 195.714844 117.847656 194.941406 118.117188 194.171875 118.402344 C 187.871094 120.746094 181.101562 122.207031 173.863281 122.785156 Z M 197.089844 89.378906 C 204.851562 87.769531 212.75 87.273438 220.792969 87.886719 L 218.714844 114.980469 C 213.199219 114.558594 207.800781 114.894531 202.523438 115.992188 Z M 229.835938 89.046875 C 237.585938 90.441406 245.039062 92.773438 252.1875 96.042969 L 240.972656 120.777344 C 235.882812 118.449219 230.574219 116.789062 225.046875 115.792969 Z M 229.835938 89.046875 "/></g></g></g></g><g style="fill:#000000;fill-opacity:1;"><g transform="translate(152.251386, 257.090638)"><path style="stroke:none" d="M 10.671875 0.171875 L 9.3125 0.171875 L 5.203125 -6.515625 L 2.921875 -3.875 L 2.921875 0.171875 L 1.65625 0.171875 L 1.65625 -12.390625 L 2.921875 -12.390625 L 2.921875 -5.5625 L 8.890625 -12.390625 L 10.296875 -12.390625 L 6 -7.40625 Z M 10.671875 0.171875 "/></g></g><g style="fill:#000000;fill-opacity:1;"><g transform="translate(163.534172, 257.090638)"><path style="stroke:none" d="M 11.15625 -6.125 C 11.15625 -5.238281 11.078125 -4.40625 10.921875 -3.625 C 10.773438 -2.851562 10.519531 -2.171875 10.15625 -1.578125 C 9.800781 -0.992188 9.296875 -0.53125 8.640625 -0.1875 C 7.992188 0.144531 7.164062 0.3125 6.15625 0.3125 C 5.113281 0.3125 4.269531 0.132812 3.625 -0.21875 C 2.976562 -0.582031 2.484375 -1.066406 2.140625 -1.671875 C 1.796875 -2.273438 1.5625 -2.960938 1.4375 -3.734375 C 1.320312 -4.503906 1.265625 -5.300781 1.265625 -6.125 C 1.265625 -6.976562 1.332031 -7.785156 1.46875 -8.546875 C 1.613281 -9.316406 1.863281 -10 2.21875 -10.59375 C 2.582031 -11.1875 3.082031 -11.65625 3.71875 -12 C 4.351562 -12.34375 5.164062 -12.515625 6.15625 -12.515625 C 7.1875 -12.515625 8.03125 -12.332031 8.6875 -11.96875 C 9.34375 -11.613281 9.847656 -11.132812 10.203125 -10.53125 C 10.566406 -9.9375 10.816406 -9.253906 10.953125 -8.484375 C 11.085938 -7.722656 11.15625 -6.9375 11.15625 -6.125 Z M 9.828125 -6.125 C 9.828125 -6.800781 9.785156 -7.457031 9.703125 -8.09375 C 9.617188 -8.726562 9.445312 -9.300781 9.1875 -9.8125 C 8.9375 -10.332031 8.566406 -10.738281 8.078125 -11.03125 C 7.597656 -11.332031 6.957031 -11.484375 6.15625 -11.484375 C 5.320312 -11.484375 4.660156 -11.316406 4.171875 -10.984375 C 3.691406 -10.660156 3.332031 -10.234375 3.09375 -9.703125 C 2.863281 -9.171875 2.710938 -8.585938 2.640625 -7.953125 C 2.578125 -7.316406 2.546875 -6.703125 2.546875 -6.109375 C 2.546875 -5.429688 2.582031 -4.773438 2.65625 -4.140625 C 2.738281 -3.515625 2.898438 -2.941406 3.140625 -2.421875 C 3.378906 -1.910156 3.738281 -1.503906 4.21875 -1.203125 C 4.695312 -0.898438 5.335938 -0.75 6.140625 -0.75 C 6.972656 -0.75 7.632812 -0.910156 8.125 -1.234375 C 8.625 -1.554688 8.992188 -1.976562 9.234375 -2.5 C 9.484375 -3.03125 9.644531 -3.613281 9.71875 -4.25 C 9.789062 -4.882812 9.828125 -5.507812 9.828125 -6.125 Z M 9.828125 -6.125 "/></g></g><g style="fill:#000000;fill-opacity:1;"><g transform="translate(176.074378, 257.090638)"><path style="stroke:none" d="M 10.65625 -8.78125 C 10.65625 -7.925781 10.414062 -7.179688 9.9375 -6.546875 C 9.46875 -5.910156 8.738281 -5.488281 7.75 -5.28125 L 7.78125 -5.28125 L 11.015625 0.171875 L 9.59375 0.171875 L 6.5 -5.171875 L 2.953125 -5.171875 L 2.953125 0.171875 L 1.6875 0.171875 L 1.6875 -12.390625 L 6.578125 -12.390625 C 7.503906 -12.390625 8.269531 -12.226562 8.875 -11.90625 C 9.476562 -11.582031 9.925781 -11.148438 10.21875 -10.609375 C 10.507812 -10.066406 10.65625 -9.457031 10.65625 -8.78125 Z M 9.40625 -8.765625 C 9.414062 -9.566406 9.203125 -10.203125 8.765625 -10.671875 C 8.335938 -11.140625 7.695312 -11.375 6.84375 -11.375 L 2.953125 -11.375 L 2.953125 -6.203125 L 6.890625 -6.203125 C 7.722656 -6.203125 8.347656 -6.453125 8.765625 -6.953125 C 9.191406 -7.453125 9.40625 -8.054688 9.40625 -8.765625 Z M 9.40625 -8.765625 "/></g></g><g style="fill:#000000;fill-opacity:1;"><g transform="translate(187.951892, 257.090638)"><path style="stroke:none" d="M 9.671875 0.171875 L 1.6875 0.171875 L 1.6875 -12.390625 L 9.671875 -12.390625 L 9.671875 -11.375 L 2.953125 -11.375 L 2.953125 -6.703125 L 8.765625 -6.703125 L 8.765625 -5.625 L 2.953125 -5.625 L 2.953125 -0.84375 L 9.671875 -0.84375 Z M 9.671875 0.171875 "/></g></g><g style="fill:#000000;fill-opacity:1;"><g transform="translate(198.537996, 257.090638)"><path style="stroke:none" d="M 10.96875 0.171875 L 9.65625 0.171875 L 8.453125 -3.09375 L 2.75 -3.09375 L 1.578125 0.171875 L 0.3125 0.171875 L 4.96875 -12.390625 L 6.3125 -12.390625 Z M 8.140625 -4.09375 L 5.640625 -11.046875 L 3.109375 -4.09375 Z M 8.140625 -4.09375 "/></g></g><g style="fill:#000000;fill-opacity:1;"><g transform="translate(210.126638, 257.090638)"><path style="stroke:none" d="M 10.9375 0.171875 L 9.84375 0.171875 L 2.921875 -10.203125 L 2.921875 0.171875 L 1.6875 0.171875 L 1.6875 -12.390625 L 2.8125 -12.390625 L 9.71875 -1.984375 L 9.71875 -12.390625 L 10.9375 -12.390625 Z M 10.9375 0.171875 "/></g></g><g style="fill:#000000;fill-opacity:1;"><g transform="translate(131.122481, 280.340636)"><path style="stroke:none" d="M 9.3125 -3.21875 C 9.3125 -2.488281 9.117188 -1.859375 8.734375 -1.328125 C 8.347656 -0.804688 7.820312 -0.398438 7.15625 -0.109375 C 6.488281 0.171875 5.726562 0.3125 4.875 0.3125 C 3.976562 0.3125 3.207031 0.179688 2.5625 -0.078125 C 1.925781 -0.335938 1.320312 -0.742188 0.75 -1.296875 L 1.5 -2.171875 C 1.925781 -1.734375 2.394531 -1.382812 2.90625 -1.125 C 3.425781 -0.875 4.082031 -0.75 4.875 -0.75 C 5.820312 -0.75 6.578125 -0.957031 7.140625 -1.375 C 7.710938 -1.789062 8 -2.390625 8 -3.171875 C 8 -3.535156 7.941406 -3.878906 7.828125 -4.203125 C 7.722656 -4.523438 7.5 -4.800781 7.15625 -5.03125 C 6.8125 -5.257812 6.296875 -5.421875 5.609375 -5.515625 L 4.078125 -5.6875 C 3.535156 -5.757812 3.019531 -5.921875 2.53125 -6.171875 C 2.050781 -6.429688 1.660156 -6.796875 1.359375 -7.265625 C 1.066406 -7.742188 0.921875 -8.332031 0.921875 -9.03125 C 0.921875 -10.101562 1.289062 -10.953125 2.03125 -11.578125 C 2.769531 -12.210938 3.765625 -12.53125 5.015625 -12.53125 C 5.785156 -12.53125 6.460938 -12.425781 7.046875 -12.21875 C 7.628906 -12.019531 8.179688 -11.664062 8.703125 -11.15625 L 7.859375 -10.390625 C 7.460938 -10.835938 7.015625 -11.132812 6.515625 -11.28125 C 6.023438 -11.4375 5.515625 -11.515625 4.984375 -11.515625 C 4.109375 -11.515625 3.421875 -11.300781 2.921875 -10.875 C 2.429688 -10.457031 2.1875 -9.851562 2.1875 -9.0625 C 2.1875 -8.375 2.367188 -7.847656 2.734375 -7.484375 C 3.109375 -7.128906 3.679688 -6.90625 4.453125 -6.8125 L 5.90625 -6.640625 C 6.96875 -6.515625 7.800781 -6.171875 8.40625 -5.609375 C 9.007812 -5.046875 9.3125 -4.25 9.3125 -3.21875 Z M 9.3125 -3.21875 "/></g></g><g style="fill:#000000;fill-opacity:1;"><g transform="translate(141.878507, 280.340636)"><path style="stroke:none" d="M 10.59375 -12.390625 L 10.59375 -3.625 C 10.59375 -2.75 10.394531 -2.019531 10 -1.4375 C 9.613281 -0.863281 9.078125 -0.4375 8.390625 -0.15625 C 7.710938 0.125 6.9375 0.265625 6.0625 0.265625 C 5.207031 0.265625 4.441406 0.125 3.765625 -0.15625 C 3.085938 -0.4375 2.550781 -0.863281 2.15625 -1.4375 C 1.769531 -2.019531 1.578125 -2.75 1.578125 -3.625 L 1.578125 -12.390625 L 2.828125 -12.390625 L 2.828125 -3.546875 C 2.828125 -2.890625 2.96875 -2.359375 3.25 -1.953125 C 3.53125 -1.554688 3.914062 -1.265625 4.40625 -1.078125 C 4.90625 -0.890625 5.457031 -0.796875 6.0625 -0.796875 C 6.675781 -0.796875 7.226562 -0.890625 7.71875 -1.078125 C 8.21875 -1.265625 8.609375 -1.554688 8.890625 -1.953125 C 9.179688 -2.359375 9.328125 -2.890625 9.328125 -3.546875 L 9.328125 -12.390625 Z M 10.59375 -12.390625 "/></g></g><g style="fill:#000000;fill-opacity:1;"><g transform="translate(154.010903, 280.340636)"><path style="stroke:none" d="M 10.40625 -3.3125 C 10.40625 -2.21875 10.078125 -1.363281 9.421875 -0.75 C 8.773438 -0.132812 7.863281 0.171875 6.6875 0.171875 L 1.6875 0.171875 L 1.6875 -12.390625 L 6.359375 -12.390625 C 7.554688 -12.390625 8.488281 -12.078125 9.15625 -11.453125 C 9.832031 -10.828125 10.171875 -10.019531 10.171875 -9.03125 C 10.171875 -8.625 10.082031 -8.226562 9.90625 -7.84375 C 9.726562 -7.46875 9.507812 -7.140625 9.25 -6.859375 C 8.988281 -6.585938 8.71875 -6.398438 8.4375 -6.296875 C 8.738281 -6.160156 9.039062 -5.945312 9.34375 -5.65625 C 9.65625 -5.375 9.910156 -5.035156 10.109375 -4.640625 C 10.304688 -4.242188 10.40625 -3.800781 10.40625 -3.3125 Z M 8.921875 -9.078125 C 8.921875 -9.472656 8.828125 -9.84375 8.640625 -10.1875 C 8.460938 -10.53125 8.203125 -10.8125 7.859375 -11.03125 C 7.523438 -11.257812 7.113281 -11.375 6.625 -11.375 L 2.953125 -11.375 L 2.953125 -6.75 L 6.75 -6.75 C 7.238281 -6.75 7.640625 -6.867188 7.953125 -7.109375 C 8.273438 -7.347656 8.515625 -7.644531 8.671875 -8 C 8.835938 -8.351562 8.921875 -8.710938 8.921875 -9.078125 Z M 9.09375 -3.28125 C 9.09375 -3.6875 9.003906 -4.078125 8.828125 -4.453125 C 8.660156 -4.828125 8.40625 -5.128906 8.0625 -5.359375 C 7.71875 -5.597656 7.285156 -5.71875 6.765625 -5.71875 L 2.953125 -5.71875 L 2.953125 -0.84375 L 6.890625 -0.84375 C 7.367188 -0.84375 7.773438 -0.957031 8.109375 -1.1875 C 8.441406 -1.425781 8.6875 -1.726562 8.84375 -2.09375 C 9.007812 -2.46875 9.09375 -2.863281 9.09375 -3.28125 Z M 9.09375 -3.28125 "/></g></g><g style="fill:#000000;fill-opacity:1;"><g transform="translate(165.310684, 280.340636)"><path style="stroke:none" d="M 9.109375 -3.328125 L 10.265625 -3.328125 C 10.085938 -2.171875 9.65625 -1.28125 8.96875 -0.65625 C 8.28125 -0.0390625 7.351562 0.265625 6.1875 0.265625 C 5.363281 0.265625 4.625 0.132812 3.96875 -0.125 C 3.3125 -0.394531 2.8125 -0.753906 2.46875 -1.203125 C 2.019531 -1.773438 1.707031 -2.46875 1.53125 -3.28125 C 1.363281 -4.101562 1.28125 -5.050781 1.28125 -6.125 C 1.28125 -7.007812 1.332031 -7.8125 1.4375 -8.53125 C 1.539062 -9.257812 1.753906 -9.90625 2.078125 -10.46875 C 2.398438 -11.070312 2.90625 -11.554688 3.59375 -11.921875 C 4.289062 -12.296875 5.101562 -12.484375 6.03125 -12.484375 C 7.132812 -12.484375 8.066406 -12.175781 8.828125 -11.5625 C 9.597656 -10.945312 10.070312 -10.078125 10.25 -8.953125 L 9.0625 -8.953125 C 8.988281 -9.367188 8.832031 -9.769531 8.59375 -10.15625 C 8.363281 -10.539062 8.035156 -10.851562 7.609375 -11.09375 C 7.191406 -11.332031 6.660156 -11.453125 6.015625 -11.453125 C 4.597656 -11.453125 3.644531 -10.945312 3.15625 -9.9375 C 2.9375 -9.46875 2.78125 -8.925781 2.6875 -8.3125 C 2.601562 -7.695312 2.5625 -6.96875 2.5625 -6.125 C 2.5625 -5.1875 2.625 -4.367188 2.75 -3.671875 C 2.882812 -2.972656 3.125 -2.382812 3.46875 -1.90625 C 3.707031 -1.5625 4.066406 -1.289062 4.546875 -1.09375 C 5.035156 -0.894531 5.5625 -0.796875 6.125 -0.796875 C 6.769531 -0.796875 7.296875 -0.921875 7.703125 -1.171875 C 8.109375 -1.421875 8.421875 -1.738281 8.640625 -2.125 C 8.859375 -2.507812 9.015625 -2.910156 9.109375 -3.328125 Z M 9.109375 -3.328125 "/></g></g><g style="fill:#000000;fill-opacity:1;"><g transform="translate(176.559493, 280.340636)"><path style="stroke:none" d="M 10.59375 -12.390625 L 10.59375 -3.625 C 10.59375 -2.75 10.394531 -2.019531 10 -1.4375 C 9.613281 -0.863281 9.078125 -0.4375 8.390625 -0.15625 C 7.710938 0.125 6.9375 0.265625 6.0625 0.265625 C 5.207031 0.265625 4.441406 0.125 3.765625 -0.15625 C 3.085938 -0.4375 2.550781 -0.863281 2.15625 -1.4375 C 1.769531 -2.019531 1.578125 -2.75 1.578125 -3.625 L 1.578125 -12.390625 L 2.828125 -12.390625 L 2.828125 -3.546875 C 2.828125 -2.890625 2.96875 -2.359375 3.25 -1.953125 C 3.53125 -1.554688 3.914062 -1.265625 4.40625 -1.078125 C 4.90625 -0.890625 5.457031 -0.796875 6.0625 -0.796875 C 6.675781 -0.796875 7.226562 -0.890625 7.71875 -1.078125 C 8.21875 -1.265625 8.609375 -1.554688 8.890625 -1.953125 C 9.179688 -2.359375 9.328125 -2.890625 9.328125 -3.546875 L 9.328125 -12.390625 Z M 10.59375 -12.390625 "/></g></g><g style="fill:#000000;fill-opacity:1;"><g transform="translate(188.691889, 280.340636)"><path style="stroke:none" d="M 9.78125 0.171875 L 1.6875 0.171875 L 1.6875 -12.390625 L 2.953125 -12.390625 L 2.953125 -0.84375 L 9.78125 -0.84375 Z M 9.78125 0.171875 "/></g></g><g style="fill:#000000;fill-opacity:1;"><g transform="translate(199.040106, 280.340636)"><path style="stroke:none" d="M 9.671875 -11.375 L 5.6875 -11.375 L 5.6875 0.171875 L 4.390625 0.171875 L 4.390625 -11.375 L 0.40625 -11.375 L 0.40625 -12.390625 L 9.671875 -12.390625 Z M 9.671875 -11.375 "/></g></g><g style="fill:#000000;fill-opacity:1;"><g transform="translate(209.269384, 280.340636)"><path style="stroke:none" d="M 10.59375 -12.390625 L 10.59375 -3.625 C 10.59375 -2.75 10.394531 -2.019531 10 -1.4375 C 9.613281 -0.863281 9.078125 -0.4375 8.390625 -0.15625 C 7.710938 0.125 6.9375 0.265625 6.0625 0.265625 C 5.207031 0.265625 4.441406 0.125 3.765625 -0.15625 C 3.085938 -0.4375 2.550781 -0.863281 2.15625 -1.4375 C 1.769531 -2.019531 1.578125 -2.75 1.578125 -3.625 L 1.578125 -12.390625 L 2.828125 -12.390625 L 2.828125 -3.546875 C 2.828125 -2.890625 2.96875 -2.359375 3.25 -1.953125 C 3.53125 -1.554688 3.914062 -1.265625 4.40625 -1.078125 C 4.90625 -0.890625 5.457031 -0.796875 6.0625 -0.796875 C 6.675781 -0.796875 7.226562 -0.890625 7.71875 -1.078125 C 8.21875 -1.265625 8.609375 -1.554688 8.890625 -1.953125 C 9.179688 -2.359375 9.328125 -2.890625 9.328125 -3.546875 L 9.328125 -12.390625 Z M 10.59375 -12.390625 "/></g></g><g style="fill:#000000;fill-opacity:1;"><g transform="translate(221.401779, 280.340636)"><path style="stroke:none" d="M 10.65625 -8.78125 C 10.65625 -7.925781 10.414062 -7.179688 9.9375 -6.546875 C 9.46875 -5.910156 8.738281 -5.488281 7.75 -5.28125 L 7.78125 -5.28125 L 11.015625 0.171875 L 9.59375 0.171875 L 6.5 -5.171875 L 2.953125 -5.171875 L 2.953125 0.171875 L 1.6875 0.171875 L 1.6875 -12.390625 L 6.578125 -12.390625 C 7.503906 -12.390625 8.269531 -12.226562 8.875 -11.90625 C 9.476562 -11.582031 9.925781 -11.148438 10.21875 -10.609375 C 10.507812 -10.066406 10.65625 -9.457031 10.65625 -8.78125 Z M 9.40625 -8.765625 C 9.414062 -9.566406 9.203125 -10.203125 8.765625 -10.671875 C 8.335938 -11.140625 7.695312 -11.375 6.84375 -11.375 L 2.953125 -11.375 L 2.953125 -6.203125 L 6.890625 -6.203125 C 7.722656 -6.203125 8.347656 -6.453125 8.765625 -6.953125 C 9.191406 -7.453125 9.40625 -8.054688 9.40625 -8.765625 Z M 9.40625 -8.765625 "/></g></g><g style="fill:#000000;fill-opacity:1;"><g transform="translate(233.279293, 280.340636)"><path style="stroke:none" d="M 9.671875 0.171875 L 1.6875 0.171875 L 1.6875 -12.390625 L 9.671875 -12.390625 L 9.671875 -11.375 L 2.953125 -11.375 L 2.953125 -6.703125 L 8.765625 -6.703125 L 8.765625 -5.625 L 2.953125 -5.625 L 2.953125 -0.84375 L 9.671875 -0.84375 Z M 9.671875 0.171875 "/></g></g><g style="fill:#000000;fill-opacity:1;"><g transform="translate(169.384197, 303.590634)"><path style="stroke:none" d="M 9.3125 -3.21875 C 9.3125 -2.488281 9.117188 -1.859375 8.734375 -1.328125 C 8.347656 -0.804688 7.820312 -0.398438 7.15625 -0.109375 C 6.488281 0.171875 5.726562 0.3125 4.875 0.3125 C 3.976562 0.3125 3.207031 0.179688 2.5625 -0.078125 C 1.925781 -0.335938 1.320312 -0.742188 0.75 -1.296875 L 1.5 -2.171875 C 1.925781 -1.734375 2.394531 -1.382812 2.90625 -1.125 C 3.425781 -0.875 4.082031 -0.75 4.875 -0.75 C 5.820312 -0.75 6.578125 -0.957031 7.140625 -1.375 C 7.710938 -1.789062 8 -2.390625 8 -3.171875 C 8 -3.535156 7.941406 -3.878906 7.828125 -4.203125 C 7.722656 -4.523438 7.5 -4.800781 7.15625 -5.03125 C 6.8125 -5.257812 6.296875 -5.421875 5.609375 -5.515625 L 4.078125 -5.6875 C 3.535156 -5.757812 3.019531 -5.921875 2.53125 -6.171875 C 2.050781 -6.429688 1.660156 -6.796875 1.359375 -7.265625 C 1.066406 -7.742188 0.921875 -8.332031 0.921875 -9.03125 C 0.921875 -10.101562 1.289062 -10.953125 2.03125 -11.578125 C 2.769531 -12.210938 3.765625 -12.53125 5.015625 -12.53125 C 5.785156 -12.53125 6.460938 -12.425781 7.046875 -12.21875 C 7.628906 -12.019531 8.179688 -11.664062 8.703125 -11.15625 L 7.859375 -10.390625 C 7.460938 -10.835938 7.015625 -11.132812 6.515625 -11.28125 C 6.023438 -11.4375 5.515625 -11.515625 4.984375 -11.515625 C 4.109375 -11.515625 3.421875 -11.300781 2.921875 -10.875 C 2.429688 -10.457031 2.1875 -9.851562 2.1875 -9.0625 C 2.1875 -8.375 2.367188 -7.847656 2.734375 -7.484375 C 3.109375 -7.128906 3.679688 -6.90625 4.453125 -6.8125 L 5.90625 -6.640625 C 6.96875 -6.515625 7.800781 -6.171875 8.40625 -5.609375 C 9.007812 -5.046875 9.3125 -4.25 9.3125 -3.21875 Z M 9.3125 -3.21875 "/></g></g><g style="fill:#000000;fill-opacity:1;"><g transform="translate(180.140224, 303.590634)"><path style="stroke:none" d="M 2.984375 0.171875 L 1.6875 0.171875 L 1.6875 -12.390625 L 2.984375 -12.390625 Z M 2.984375 0.171875 "/></g></g><g style="fill:#000000;fill-opacity:1;"><g transform="translate(184.779086, 303.590634)"><path style="stroke:none" d="M 9.671875 -11.375 L 5.6875 -11.375 L 5.6875 0.171875 L 4.390625 0.171875 L 4.390625 -11.375 L 0.40625 -11.375 L 0.40625 -12.390625 L 9.671875 -12.390625 Z M 9.671875 -11.375 "/></g></g><g style="fill:#000000;fill-opacity:1;"><g transform="translate(195.008364, 303.590634)"><path style="stroke:none" d="M 9.671875 0.171875 L 1.6875 0.171875 L 1.6875 -12.390625 L 9.671875 -12.390625 L 9.671875 -11.375 L 2.953125 -11.375 L 2.953125 -6.703125 L 8.765625 -6.703125 L 8.765625 -5.625 L 2.953125 -5.625 L 2.953125 -0.84375 L 9.671875 -0.84375 Z M 9.671875 0.171875 "/></g></g></g></svg>